<?xml version="1.0" encoding="UTF-8" standalone="no"?>
<!DOCTYPE svg PUBLIC "-//W3C//DTD SVG 1.1//EN" "http://www.w3.org/Graphics/SVG/1.1/DTD/svg11.dtd">
<svg version="1.1" xmlns="http://www.w3.org/2000/svg" xmlns:xlink="http://www.w3.org/1999/xlink" preserveAspectRatio="xMidYMid meet" viewBox="0 0 1600 1000" width="1600" height="1000"><defs><path d="M425 950L1175 950L1175 1000L425 1000L425 950Z" id="b34QnppD6"></path><path d="M152.3 874.61L352.3 874.61L352.3 894.61L152.3 894.61L152.3 874.61Z" id="a6aQQmQQTZ"></path><path d="M352.3 779.47L552.3 779.47L552.3 799.47L352.3 799.47L352.3 779.47Z" id="a1cGoJb2dI"></path><path d="M646.92 818.17L846.92 818.17L846.92 838.17L646.92 838.17L646.92 818.17Z" id="a6yGuyRIIm"></path><path d="M982.69 813.8L1182.69 813.8L1182.69 833.8L982.69 833.8L982.69 813.8Z" id="a66iEbVjG"></path><path d="M1240 747.88L1440 747.88L1440 767.88L1240 767.88L1240 747.88Z" id="cc20ukv4P"></path><path d="M1467.69 638.89L1600 638.89L1600 658.89L1467.69 658.89L1467.69 638.89Z" id="b6w6UqjZH"></path></defs><g><g><g><use xlink:href="#b34QnppD6" opacity="1" fill="#10b480" fill-opacity="1"></use></g><g><use xlink:href="#a6aQQmQQTZ" opacity="1" fill="#cdca5b" fill-opacity="1"></use></g><g><use xlink:href="#a1cGoJb2dI" opacity="1" fill="#cdca5b" fill-opacity="1"></use></g><g><use xlink:href="#a6yGuyRIIm" opacity="1" fill="#cdca5b" fill-opacity="1"></use></g><g><use xlink:href="#a66iEbVjG" opacity="1" fill="#cdca5b" fill-opacity="1"></use></g><g><use xlink:href="#cc20ukv4P" opacity="1" fill="#cdca5b" fill-opacity="1"></use></g><g><use xlink:href="#b6w6UqjZH" opacity="1" fill="#cdca5b" fill-opacity="1"></use></g></g></g></svg>