<?xml version="1.0" encoding="UTF-8" standalone="no"?>
<!DOCTYPE svg PUBLIC "-//W3C//DTD SVG 1.1//EN" "http://www.w3.org/Graphics/SVG/1.1/DTD/svg11.dtd">
<svg version="1.1" xmlns="http://www.w3.org/2000/svg" xmlns:xlink="http://www.w3.org/1999/xlink" preserveAspectRatio="xMidYMid meet" viewBox="0 0 1600 1000" width="1600" height="1000"><defs><path d="M425 950L1175 950L1175 1000L425 1000L425 950Z" id="b9ZcKZEyT"></path><path d="M1000 698.03L1200 698.03L1200 718.03L1000 718.03L1000 698.03Z" id="b2w2540nv7"></path><path d="M650 750L850 750L850 770L650 770L650 750Z" id="l8ApuNdRRU"></path><path d="M400 650L600 650L600 670L400 670L400 650Z" id="aoh60U2H"></path><path d="M1250 840L1350 840L1350 820L1250 820L1250 840Z" id="bnv4L4RCg"></path><path d="M1400 750L1600 750L1600 770L1400 770L1400 750Z" id="aDxo5DbYq"></path><path d="M80 570L280 570L280 590L80 590L80 570Z" id="clCeMGWvC"></path><path d="M320 460L425 460L425 480L320 480L320 460Z" id="gfm8TxJnk"></path><path d="M520 460L720 460L720 480L520 480L520 460Z" id="ipzL2xCMG"></path><path d="M840 500L930 500L930 520L840 520L840 500Z" id="a2QhAOPuUU"></path><path d="M960 426L1160 426L1160 446L960 446L960 426Z" id="aELsvcR2e"></path><path d="M620 320L820 320L820 340L620 340L620 320Z" id="jjlIgqj0o"></path><path d="M1000 890L1200 890L1200 910L1000 910L1000 890Z" id="bcHYN1vaU"></path><path d="M550 708.03L650 708.03L650 728.03L550 728.03L550 708.03Z" id="bcmjtqP2z"></path><path d="M170 490L220 490L220 510L170 510L170 490Z" id="c1qo0D6QoM"></path><path d="M820 366L910 366L910 386L820 386L820 366Z" id="c1y1VvhWOo"></path><path d="M280 620L370 620L370 640L280 640L280 620Z" id="e1CzNNqA7e"></path><path d="M1136 760L1236 760L1236 740L1136 740L1136 760Z" id="aWXYH4BpA"></path></defs><g><g><g><use xlink:href="#b9ZcKZEyT" opacity="1" fill="#10b480" fill-opacity="1"></use></g><g><use xlink:href="#b2w2540nv7" opacity="1" fill="#cdca5b" fill-opacity="1"></use></g><g><use xlink:href="#l8ApuNdRRU" opacity="1" fill="#cdca5b" fill-opacity="1"></use></g><g><use xlink:href="#aoh60U2H" opacity="1" fill="#cdca5b" fill-opacity="1"></use></g><g><use xlink:href="#bnv4L4RCg" opacity="1" fill="#cdca5b" fill-opacity="1"></use></g><g><use xlink:href="#aDxo5DbYq" opacity="1" fill="#cdca5b" fill-opacity="1"></use></g><g><use xlink:href="#clCeMGWvC" opacity="1" fill="#cdca5b" fill-opacity="1"></use></g><g><use xlink:href="#gfm8TxJnk" opacity="1" fill="#cdca5b" fill-opacity="1"></use></g><g><use xlink:href="#ipzL2xCMG" opacity="1" fill="#cdca5b" fill-opacity="1"></use></g><g><use xlink:href="#a2QhAOPuUU" opacity="1" fill="#cdca5b" fill-opacity="1"></use></g><g><use xlink:href="#aELsvcR2e" opacity="1" fill="#cdca5b" fill-opacity="1"></use></g><g><use xlink:href="#jjlIgqj0o" opacity="1" fill="#cdca5b" fill-opacity="1"></use></g><g><use xlink:href="#bcHYN1vaU" opacity="1" fill="#cdca5b" fill-opacity="1"></use></g><g><use xlink:href="#bcmjtqP2z" opacity="1" fill="#cdca5b" fill-opacity="1"></use></g><g><use xlink:href="#c1qo0D6QoM" opacity="1" fill="#cdca5b" fill-opacity="1"></use></g><g><use xlink:href="#c1y1VvhWOo" opacity="1" fill="#cdca5b" fill-opacity="1"></use></g><g><use xlink:href="#e1CzNNqA7e" opacity="1" fill="#cdca5b" fill-opacity="1"></use></g><g><use xlink:href="#aWXYH4BpA" opacity="1" fill="#cdca5b" fill-opacity="1"></use></g></g></g></svg>