<?xml version="1.0" encoding="UTF-8" standalone="no"?>
<!DOCTYPE svg PUBLIC "-//W3C//DTD SVG 1.1//EN" "http://www.w3.org/Graphics/SVG/1.1/DTD/svg11.dtd">
<svg version="1.1" xmlns="http://www.w3.org/2000/svg" xmlns:xlink="http://www.w3.org/1999/xlink" preserveAspectRatio="xMidYMid meet" viewBox="0 0 1600 1000" width="1600" height="1000"><defs><path d="M425 950L1175 950L1175 1000L425 1000L425 950Z" id="b4FptXHLjY"></path><path d="M1000 698.03L1200 698.03L1200 718.03L1000 718.03L1000 698.03Z" id="h3KfVCR9Ne"></path><path d="M650 750L850 750L850 770L650 770L650 750Z" id="a3vxU5AyFJ"></path><path d="M400 650L600 650L600 670L400 670L400 650Z" id="b4pUlzFmMh"></path><path d="M1250 840L1350 840L1350 820L1250 820L1250 840Z" id="d37Zk1KE1"></path><path d="M1400 750L1600 750L1600 770L1400 770L1400 750Z" id="b13zUFzfXL"></path><path d="M80 570L280 570L280 590L80 590L80 570Z" id="a2txPCdvVK"></path><path d="M280 470L385 470L385 490L280 490L280 470Z" id="biMVR5kfg"></path><path d="M520 460L720 460L720 480L520 480L520 460Z" id="g5EJ4PY0K"></path><path d="M842 536L932 536L932 556L842 556L842 536Z" id="a7j0wDM7U"></path><path d="M1050 490L1250 490L1250 510L1050 510L1050 490Z" id="a27tBM0bs"></path><path d="M620 320L820 320L820 340L620 340L620 320Z" id="a4R8GRmChh"></path><path d="M1000 890L1200 890L1200 910L1000 910L1000 890Z" id="bpVinT22l"></path><path d="M900 366L990 366L990 386L900 386L900 366Z" id="bpjH79gbJ"></path><path d="M1300 406L1390 406L1390 426L1300 426L1300 406Z" id="a1xgJxvJQU"></path><path d="M1455 340L1545 340L1545 360L1455 360L1455 340Z" id="d80RQNgJur"></path><path d="M1305 249.75L1395 249.75L1395 269.75L1305 269.75L1305 249.75Z" id="h1hadHRwaS"></path><path d="M1130 215L1220 215L1220 235L1130 235L1130 215Z" id="csu4zVSZP"></path><path d="M80 924L280 924L280 944L80 944L80 924Z" id="bwaeArQxf"></path></defs><g><g><g><use xlink:href="#b4FptXHLjY" opacity="1" fill="#10b480" fill-opacity="1"></use></g><g><use xlink:href="#h3KfVCR9Ne" opacity="1" fill="#cdca5b" fill-opacity="1"></use></g><g><use xlink:href="#a3vxU5AyFJ" opacity="1" fill="#cdca5b" fill-opacity="1"></use></g><g><use xlink:href="#b4pUlzFmMh" opacity="1" fill="#cdca5b" fill-opacity="1"></use></g><g><use xlink:href="#d37Zk1KE1" opacity="1" fill="#cdca5b" fill-opacity="1"></use></g><g><use xlink:href="#b13zUFzfXL" opacity="1" fill="#cdca5b" fill-opacity="1"></use></g><g><use xlink:href="#a2txPCdvVK" opacity="1" fill="#cdca5b" fill-opacity="1"></use></g><g><use xlink:href="#biMVR5kfg" opacity="1" fill="#cdca5b" fill-opacity="1"></use></g><g><use xlink:href="#g5EJ4PY0K" opacity="1" fill="#cdca5b" fill-opacity="1"></use></g><g><use xlink:href="#a7j0wDM7U" opacity="1" fill="#cdca5b" fill-opacity="1"></use></g><g><use xlink:href="#a27tBM0bs" opacity="1" fill="#cdca5b" fill-opacity="1"></use></g><g><use xlink:href="#a4R8GRmChh" opacity="1" fill="#cdca5b" fill-opacity="1"></use></g><g><use xlink:href="#bpVinT22l" opacity="1" fill="#cdca5b" fill-opacity="1"></use></g><g><use xlink:href="#bpjH79gbJ" opacity="1" fill="#cdca5b" fill-opacity="1"></use></g><g><use xlink:href="#a1xgJxvJQU" opacity="1" fill="#cdca5b" fill-opacity="1"></use></g><g><use xlink:href="#d80RQNgJur" opacity="1" fill="#cdca5b" fill-opacity="1"></use></g><g><use xlink:href="#h1hadHRwaS" opacity="1" fill="#cdca5b" fill-opacity="1"></use></g><g><use xlink:href="#csu4zVSZP" opacity="1" fill="#cdca5b" fill-opacity="1"></use></g><g><use xlink:href="#bwaeArQxf" opacity="1" fill="#cdca5b" fill-opacity="1"></use></g></g></g></svg>